# xmcd
#
# Track frame offsets: 
#        150
#        15431
#        32581
#        48774
#        63217
#        78418
#        96366
#        116664
#        134617
#        154736
#
# Disc length: 2227 seconds
#
# Revision: 0
# Processed by: cddbd v1.5.2PL0 Copyright (c) Steve Scherf et al.
# Submitted via: ExactAudioCopy v1.0b6
#
DISCID=7608b10a
DTITLE=We Walk Walls - Opportunity
DYEAR=2015
DGENRE=Indie Pop
TTITLE0=Exploration
TTITLE1=Little Lies
TTITLE2=Strange Terms
TTITLE3=Ordinary Things
TTITLE4=Opportunity
TTITLE5=Hommage
TTITLE6=Minimal Human
TTITLE7=I Am Your Daughter
TTITLE8=Weekend Violence
TTITLE9=Exploitation
EXTD=
EXTT0=
EXTT1=
EXTT2=
EXTT3=
EXTT4=
EXTT5=
EXTT6=
EXTT7=
EXTT8=
EXTT9=
PLAYORDER=
